<svg version="1.1" id="Calque_1" xmlns="http://www.w3.org/2000/svg"
    xmlns:xlink="http://www.w3.org/1999/xlink" x="0px" y="0px"
    viewBox="0 0 30 30" style="enable-background:new 0 0 30 30;" xml:space="preserve">
    <g transform="matrix(1,0,0,1,-240,-48)">
        <path d="M265.394,69.723C263.601,70.222 261.791,70.573 259.966,70.776C259.71,71.511 259.415,72.167 259.089,72.725C258.234,74.188 257.14,75 256,75C259.975,75 263.461,72.887 265.394,69.723ZM246.595,69.705C248.525,72.878 252.017,75 256,75C254.86,75 253.766,74.188 252.911,72.725C252.58,72.157 252.28,71.489 252.022,70.74C250.227,70.53 248.419,70.185 246.595,69.705ZM253.125,70.852C255.056,71.019 256.969,71.029 258.865,70.88C258.671,71.374 258.457,71.824 258.225,72.221C257.59,73.307 256.847,74 256,74C255.153,74 254.41,73.307 253.775,72.221C253.538,71.816 253.321,71.357 253.125,70.852ZM259.995,64.5C259.954,66.482 259.675,68.317 259.219,69.844C257.093,70.04 254.944,70.03 252.772,69.814C252.321,68.292 252.045,66.469 252.005,64.5L259.995,64.5ZM266.989,64.5L260.995,64.5C260.957,66.415 260.702,68.2 260.288,69.728C262.177,69.492 264.048,69.091 265.901,68.526C265.946,68.512 265.993,68.504 266.039,68.501C266.592,67.271 266.925,65.92 266.989,64.5ZM251.005,64.5L245.011,64.5C245.075,65.92 245.408,67.271 245.961,68.501C246.004,68.503 246.046,68.51 246.089,68.523C247.977,69.06 249.848,69.45 251.702,69.691C251.294,68.17 251.043,66.399 251.005,64.5ZM251.705,58.297C249.861,58.54 247.99,58.932 246.09,59.477C246.047,59.489 246.004,59.497 245.961,59.499C245.408,60.729 245.075,62.08 245.011,63.5L251.005,63.5C251.043,61.596 251.295,59.82 251.705,58.297ZM252.776,58.173C254.962,57.952 257.107,57.943 259.214,58.137C259.673,59.669 259.954,61.51 259.995,63.5L252.005,63.5C252.045,61.526 252.323,59.697 252.776,58.173ZM260.283,58.254C260.7,59.787 260.957,61.578 260.995,63.5L266.989,63.5C266.925,62.08 266.592,60.729 266.039,59.499C265.992,59.496 265.945,59.488 265.898,59.474C264.058,58.902 262.187,58.494 260.283,58.254ZM246.596,58.293C248.432,57.806 250.242,57.459 252.026,57.247C252.283,56.503 252.581,55.839 252.911,55.275C253.766,53.812 254.86,53 256,53C252.018,53 248.527,55.12 246.596,58.293ZM259.96,57.207C261.798,57.412 263.609,57.769 265.391,58.272C263.458,55.111 259.974,53 256,53C257.14,53 258.234,53.812 259.089,55.275C259.413,55.829 259.706,56.479 259.96,57.207ZM253.13,57.133C253.325,56.634 253.541,56.18 253.775,55.779C254.41,54.693 255.153,54 256,54C256.847,54 257.59,54.693 258.225,55.779C258.454,56.171 258.666,56.615 258.857,57.102C256.978,56.954 255.069,56.963 253.13,57.133Z"/></g>
</svg>